<svg xmlns="http://www.w3.org/2000/svg" viewBox="0 0 240 128" width="240" height="240" role="img" aria-label="Sahadeva stacked logo"><title>Sahadeva stacked logo</title><g transform="translate(88 0)" style="color:#B87327"><g fill="none" stroke="currentColor" stroke-linecap="round" stroke-linejoin="round"><circle cx="32" cy="32" r="11" stroke-width="1.8"/><circle cx="32" cy="32" r="25" stroke-width="1" opacity=".72"/><path d="M32 4 40.2 16.8 54.6 9.4 47.2 23.8 60 32 47.2 40.2 54.6 54.6 40.2 47.2 32 60 23.8 47.2 9.4 54.6 16.8 40.2 4 32 16.8 23.8 9.4 9.4 23.8 16.8Z" stroke-width="1.35"/><path d="m32 7.8 6.8 17.4L56.2 32l-17.4 6.8L32 56.2l-6.8-17.4L7.8 32l17.4-6.8L32 7.8Z" stroke-width=".8" opacity=".78"/></g></g><text x="120" y="91" text-anchor="middle" fill="#242532" font-family="Georgia, 'Times New Roman', serif" font-size="25" letter-spacing="3.4">SAHADEVA</text><text x="120" y="110" text-anchor="middle" fill="#242532" font-family="Arial, sans-serif" font-size="8" letter-spacing="2">YOUR COSMIC COMPANION</text></svg>
